<?xml version="1.0" encoding="UTF-8"?>
<svg version="1.1" xmlns="http://www.w3.org/2000/svg" width="1782" height="447">
<path d="M0 0 C3.57341886 2.20487546 5.42993164 4.1474534 7 8 C7.265625 10.4375 7.265625 10.4375 7.25 13 C7.25515625 13.845625 7.2603125 14.69125 7.265625 15.5625 C6.98531155 18.13478811 6.2948187 19.7803108 5 22 C5.81791016 22.89138672 5.81791016 22.89138672 6.65234375 23.80078125 C12.32271672 30.03334504 17.70679953 36.44607228 23 43 C25.99447274 46.67118974 28.9963977 50.33627724 32 54 C32.52255371 54.63744141 33.04510742 55.27488281 33.58349609 55.93164062 C39.63360989 63.30721494 45.69299751 70.67187377 51.875 77.9375 C55.57420039 82.28631929 59.18245167 86.69501035 62.73046875 91.16796875 C67.46825183 97.08000444 72.31685364 102.90232455 77.14013672 108.74462891 C78.97257873 110.96674748 80.80138335 113.19180351 82.62890625 115.41796875 C94.77360058 130.69935888 94.77360058 130.69935888 108 145 C108.49628906 144.73445312 108.99257813 144.46890625 109.50390625 144.1953125 C110.52291016 143.66550781 110.52291016 143.66550781 111.5625 143.125 C112.22378906 142.77695313 112.88507813 142.42890625 113.56640625 142.0703125 C123.87956847 137.53450761 136.73974622 137.31069828 147.5 140.5625 C160.008527 145.5037137 169.47073753 154.53654901 175.0390625 166.73828125 C175.35617187 167.48464844 175.67328125 168.23101562 176 169 C176.4125 169.94875 176.825 170.8975 177.25 171.875 C180.31636038 184.6515016 179.08495535 196.53731077 172.8203125 208.11328125 C166.23296991 218.55973226 156.55457838 227.05583475 144.5 230.5 C130.3805102 233.32389796 118.35920513 231.36581512 106 224 C102.875 221.6875 102.875 221.6875 101 220 C97.2549286 221.58378019 94.7072052 223.92441301 91.75 226.6875 C91.23477783 227.16662842 90.71955566 227.64575684 90.1887207 228.1394043 C88.45455859 229.75476363 86.7270916 231.37708514 85 233 C83.72806169 234.19031483 82.45592044 235.38041282 81.18359375 236.5703125 C78.47928923 239.10153352 75.77779637 241.63571341 73.078125 244.171875 C69.20495051 247.80964287 65.32306703 251.43797619 61.4375 255.0625 C60.82285889 255.63589111 60.20821777 256.20928223 59.57495117 256.80004883 C58.33630939 257.95545336 57.09762135 259.11080829 55.85888672 260.26611328 C52.73853697 263.17663651 49.61932898 266.08838287 46.5 269 C45.25000541 270.16667246 44.00000541 271.33333913 42.75 272.5 C42.13125 273.0775 41.5125 273.655 40.875 274.25 C39 276 37.125 277.75 35.25 279.5 C34.63108887 280.07766113 34.01217773 280.65532227 33.37451172 281.25048828 C32.12618263 282.41557375 30.87781033 283.58061291 29.62939453 284.74560547 C26.47847112 287.68608369 23.32833434 290.62739654 20.1796875 293.5703125 C18.91150504 294.75525832 17.64327616 295.94015447 16.375 297.125 C15.75689453 297.70258057 15.13878906 298.28016113 14.50195312 298.87524414 C10.35235741 302.74881959 6.18014875 306.59695422 2 310.4375 C-1.85265794 313.97776475 -5.62181886 317.57562651 -9.28295898 321.31396484 C-11.03274854 323.03215717 -12.84461149 324.63474949 -14.703125 326.234375 C-18.87963963 329.86859673 -22.91949715 333.62966373 -26.9375 337.4375 C-28.43097405 338.84767271 -29.9244641 340.25782846 -31.41796875 341.66796875 C-32.17513184 342.38388184 -32.93229492 343.09979492 -33.71240234 343.83740234 C-42.80080324 352.42919051 -51.89329731 361.01568308 -61.1027832 369.4777832 C-64.13483108 372.2670776 -67.1486814 375.07441082 -70.1484375 377.8984375 C-70.86056396 378.56866943 -71.57269043 379.23890137 -72.30639648 379.92944336 C-73.68753492 381.23083684 -75.06734049 382.53364689 -76.44555664 383.83813477 C-80.19320505 387.36910666 -84.00744397 390.74794895 -88 394 C-87.7834375 394.53367187 -87.566875 395.06734375 -87.34375 395.6171875 C-84.65164831 402.8210522 -83.33753596 409.90680502 -86.5 417.1875 C-89.76366227 422.87296113 -94.46596119 426.89423761 -100.4375 429.5 C-107.86659485 430.54267998 -114.85741663 429.54241459 -121 425 C-126.93191257 418.6038508 -128.27607019 413.58402876 -128.234375 404.953125 C-127.95314698 401.40965189 -126.85238953 399.01013298 -125 396 C-124.65083807 392.76122416 -124.65083807 392.76122416 -127.5 390.4375 C-128.325 389.633125 -129.15 388.82875 -130 388 C-130 387.34 -130 386.68 -130 386 C-130.66 386 -131.32 386 -132 386 C-133.26953125 384.70703125 -133.26953125 384.70703125 -134.8125 382.8125 C-138.18646444 378.8302317 -141.78730428 375.16097657 -145.5 371.5 C-149.56829214 367.4786475 -153.47616737 363.42095866 -157.16796875 359.046875 C-160.1016598 355.76914769 -163.27097163 352.72247184 -166.44580078 349.67919922 C-167.66684559 348.48894784 -168.83809558 347.24804923 -170 346 C-170 345.34 -170 344.68 -170 344 C-170.66 344 -171.32 344 -172 344 C-173.33984375 342.63671875 -173.33984375 342.63671875 -174.9375 340.6875 C-177.96879287 337.11196665 -181.162397 333.79169374 -184.5 330.5 C-187.55369137 327.48825213 -190.54076442 324.46446333 -193.3125 321.1875 C-197.23708021 316.57873147 -201.57807739 312.39672377 -205.87719727 308.14233398 C-209.50846036 304.53437623 -212.97104432 300.8627957 -216.26953125 296.9453125 C-219.34799768 293.4846437 -222.72330793 290.31258283 -226.05859375 287.1015625 C-228 285 -228 285 -228 283 C-228.99 282.67 -229.98 282.34 -231 282 C-232.3671875 280.609375 -232.3671875 280.609375 -233.875 278.75 C-237.22570752 274.78618429 -240.80808119 271.14056938 -244.5 267.5 C-248.53355968 263.51285512 -252.39407517 259.4849913 -256.0625 255.15625 C-259.3036655 251.54914646 -262.79262379 248.18821105 -266.23999023 244.77954102 C-269.70386446 241.33963479 -272.97124934 237.8144615 -276.12890625 234.08984375 C-279.13520645 230.7320763 -282.37014191 227.60518234 -285.58032227 224.44360352 C-289.09549883 220.96287312 -292.38331145 217.37059993 -295.5 213.5234375 C-297.21536218 211.78127279 -298.7138275 210.85731469 -301 210 C-301.66 210.33 -302.32 210.66 -303 211 C-307.50643711 211.73711239 -311.41178556 211.96325851 -315.40234375 209.54296875 C-319.91374815 205.66789264 -321.8029718 203.36433835 -322.3125 197.25 C-322.24225359 192.48202498 -320.7912518 189.84740114 -318 186 C-315.8125 184.125 -315.8125 184.125 -313 183 C-312.0102417 183.08423218 -312.0102417 183.08423218 -311.00048828 183.17016602 C-308.21225361 183.35198101 -306.56356522 183.15509246 -304 182 C-301.31878282 178.286183 -299.63900314 174.22067096 -297.94012451 169.99523926 C-296.73466263 166.99713591 -295.45171503 164.03409948 -294.17437744 161.06607056 C-293.49642484 159.48746354 -292.82280106 157.90699125 -292.15325928 156.32479858 C-288.68564478 148.15022647 -284.87335558 140.15190861 -281.02749634 132.15005493 C-273.06137723 115.56074109 -265.42307594 98.83868276 -258 82 C-258.75925781 81.26652344 -259.51851562 80.53304687 -260.30078125 79.77734375 C-266.59639302 73.29951457 -270.96009899 66.3499262 -271.3125 57.1875 C-271.03175909 47.79671654 -267.96759595 41.95918848 -261.46484375 35.171875 C-256.07087985 30.41903201 -249.26721197 27.70676162 -242 28 C-233.5631023 29.09795244 -226.87739073 31.72678499 -221 38 C-216 45.1713615 -216 45.1713615 -216 49 C-214.73043457 48.73840088 -213.46086914 48.47680176 -212.15283203 48.20727539 C-191.90065213 44.07757807 -171.57171213 40.36375544 -151.24664307 36.61352539 C-140.44992175 34.62126412 -129.65449127 32.62203168 -118.859375 30.62109375 C-117.78967091 30.42284374 -116.71996681 30.22459373 -115.61784744 30.02033615 C-93.54638677 25.92829037 -71.49138739 21.75296368 -49.44482422 17.52905273 C-48.25427429 17.3009642 -47.06372437 17.07287567 -45.83709717 16.83787537 C-43.68287053 16.42480199 -41.52876293 16.01110698 -39.37481689 15.59657288 C-38.42371033 15.41388351 -37.47260376 15.23119415 -36.49267578 15.04296875 C-35.58938538 14.86572266 -34.68609497 14.68847656 -33.75543213 14.50585938 C-31.81517461 14.14965483 -29.86663639 13.83717187 -27.91400146 13.55664062 C-26.91999329 13.40775391 -25.92598511 13.25886719 -24.90185547 13.10546875 C-24.00594696 12.98453857 -23.11003845 12.8636084 -22.1869812 12.73901367 C-19.85693152 12.20406919 -19.85693152 12.20406919 -18.78884888 10.12792969 C-18.09195694 8.11628611 -18.09195694 8.11628611 -17.6015625 5.97265625 C-16.65905308 2.88195978 -14.65852943 1.6615809 -12 0 C-7.81974477 -1.39341841 -4.26686312 -0.97485449 0 0 Z M-7 8 C-7.99 8.66 -8.98 9.32 -10 10 C-10.2502157 13.08365871 -10.2502157 13.08365871 -10 16 C-7.6739143 16.38063221 -5.33944736 16.71269945 -3 17 C-1.64381501 15.87465895 -1.64381501 15.87465895 -1.9375 12.9375 C-1.958125 11.968125 -1.97875 10.99875 -2 10 C-4.32854463 8.80161791 -4.32854463 8.80161791 -7 8 Z M-28.28588867 18.91113281 C-29.96646111 19.21412544 -29.96646111 19.21412544 -31.6809845 19.52323914 C-32.9141893 19.74760147 -34.1473941 19.97196381 -35.41796875 20.203125 C-36.70809372 20.43671219 -37.99821869 20.67029938 -39.32743835 20.91096497 C-42.87186732 21.55320241 -46.41578528 22.19821873 -49.95955658 22.84407425 C-52.19310278 23.25102081 -54.42677005 23.6572972 -56.66046143 24.06344604 C-79.37398669 28.19532464 -102.06128938 32.45217561 -124.7338562 36.80300903 C-139.53958376 39.64389 -154.35010296 42.45071623 -169.1796875 45.1640625 C-170.2333507 45.35687333 -170.2333507 45.35687333 -171.30830002 45.55357933 C-178.740632 46.91286831 -186.17427556 48.2648091 -193.60888672 49.61157227 C-194.82593292 49.83279755 -196.04297913 50.05402283 -197.29690552 50.2819519 C-199.57102905 50.69520719 -201.84548714 51.10662708 -204.12033081 51.51589966 C-205.12057281 51.69780853 -206.12081482 51.87971741 -207.15136719 52.06713867 C-208.020578 52.22413742 -208.88978882 52.38113617 -209.78533936 52.54289246 C-212.15861666 52.98735388 -212.15861666 52.98735388 -215 54 C-215 55.98 -215 57.96 -215 60 C-204.00820709 62.78267828 -193.00720594 65.52732165 -182.00164795 68.25500488 C-178.83404709 69.04118874 -175.66726027 69.8306017 -172.50048828 70.62011719 C-166.85217175 72.02654504 -161.20027617 73.41781814 -155.54608154 74.80041504 C-153.31210215 75.34889236 -151.0792185 75.90185266 -148.84747314 76.45935059 C-145.686306 77.24803684 -142.52154308 78.0203482 -139.35546875 78.7890625 C-137.94032738 79.14772903 -137.94032738 79.14772903 -136.49659729 79.51364136 C-129.05846944 81.29085384 -123.67424449 81.34794067 -116.864151 77.32174683 C-116.26702805 76.95260162 -115.66990509 76.58345642 -115.0546875 76.203125 C-114.09005836 75.62584152 -114.09005836 75.62584152 -113.10594177 75.03689575 C-111.02198184 73.78577749 -108.94858798 72.51822055 -106.875 71.25 C-105.42268138 70.37357935 -103.96979536 69.49809829 -102.51635742 68.62353516 C-93.92916959 63.4444758 -85.39404263 58.18079734 -76.89331055 52.86108398 C-69.40948561 48.19834047 -61.8041904 43.75315477 -54.1875 39.3125 C-42.21461765 32.33024377 -42.21461765 32.33024377 -30.375 25.125 C-29.74875732 24.73868408 -29.12251465 24.35236816 -28.47729492 23.9543457 C-25.68733143 22.19977488 -23.19460114 20.47476298 -21 18 C-23.51356178 18 -25.80963739 18.4630263 -28.28588867 18.91113281 Z M-27.21484375 28.078125 C-28.28347656 28.738125 -29.35210937 29.398125 -30.453125 30.078125 C-31.61466826 30.80194707 -32.77612452 31.52590876 -33.9375 32.25 C-35.13132148 32.98988827 -36.32533346 33.72946926 -37.51953125 34.46875 C-44.95386646 39.07709319 -52.35757541 43.7334566 -59.74072266 48.42333984 C-66.39135444 52.63940313 -73.09930494 56.7594812 -79.8125 60.875 C-91.6261415 68.11916475 -103.33737067 75.51550497 -115 83 C-111.59188864 85.27207424 -108.36602195 86.05713234 -104.4453125 86.98046875 C-103.70675018 87.15757889 -102.96818787 87.33468903 -102.20724487 87.51716614 C-100.64623872 87.88920357 -99.08445687 88.25799914 -97.52197266 88.6237793 C-95.13790971 89.18446389 -92.75851239 89.76252797 -90.37890625 90.34179688 C-88.85962807 90.70159113 -87.34010411 91.06034945 -85.8203125 91.41796875 C-85.11182159 91.59184616 -84.40333069 91.76572357 -83.67337036 91.94487 C-79.81102835 92.83054707 -76.79894643 93.26456763 -73 92 C-71.11541983 90.27380734 -71.11541983 90.27380734 -69.5 87.9375 C-68.81550781 87.03386719 -68.13101563 86.13023438 -67.42578125 85.19921875 C-67.04502441 84.69181152 -66.66426758 84.1844043 -66.27197266 83.66162109 C-63.82239666 80.46165675 -61.24201632 77.36629326 -58.6875 74.25 C-54.54368171 69.17034603 -50.46006081 64.05105156 -46.4375 58.875 C-42.18890543 53.4151867 -37.74643604 48.15136667 -33.22094727 42.91992188 C-25.76545597 34.53816144 -25.76545597 34.53816144 -20 25 C-22.9891097 25 -24.68608315 26.51011902 -27.21484375 28.078125 Z M-13 25 C-13.35602295 25.48654053 -13.7120459 25.97308105 -14.07885742 26.47436523 C-22.01321724 37.3068664 -30.04749146 48.05088726 -38.23144531 58.69580078 C-43.58047965 65.66490433 -48.89633909 72.65942657 -54.21289062 79.65332031 C-55.80899455 81.74918792 -57.41108227 83.84027954 -59.015625 85.9296875 C-59.84393541 87.01548358 -60.67207838 88.10140744 -61.5 89.1875 C-62.1909375 90.08855469 -62.881875 90.98960938 -63.59375 91.91796875 C-65.18657105 93.85748753 -65.18657105 93.85748753 -65 96 C-60.25258002 97.17094643 -55.50209667 98.32815355 -50.74829102 99.47290039 C-49.13247298 99.86402002 -47.51754627 100.25884157 -45.90356445 100.6574707 C-43.57989827 101.23069417 -41.25332392 101.79041118 -38.92578125 102.34765625 C-38.20787918 102.52780777 -37.48997711 102.70795929 -36.75032043 102.89356995 C-32.86305612 103.80915967 -29.81903052 104.32641915 -26 103 C-24.31126121 101.35570171 -22.64694485 99.68615782 -21 98 C-17.10765436 95.28253288 -13.72305251 93.9446105 -9 93 C-9 70.89 -9 48.78 -9 26 C-10.32 25.67 -11.64 25.34 -13 25 Z M-2 25 C-4.28374392 26.85526578 -4.28374392 26.85526578 -4.24050903 29.74612427 C-4.23606781 30.91416595 -4.23162659 32.08220764 -4.22705078 33.28564453 C-4.22734283 33.92967224 -4.22763489 34.57369995 -4.22793579 35.23724365 C-4.22654074 37.36923627 -4.21097174 39.50088082 -4.1953125 41.6328125 C-4.19158298 43.10968841 -4.18873572 44.58656678 -4.18673706 46.06344604 C-4.17909574 49.95317398 -4.15944308 53.84275288 -4.1373291 57.73242188 C-4.11688135 61.70050032 -4.10773764 65.66860282 -4.09765625 69.63671875 C-4.07619756 77.42454716 -4.04205572 85.21225271 -4 93 C-3.31147949 93.26772217 -2.62295898 93.53544434 -1.91357422 93.8112793 C-1.0113916 94.16617432 -0.10920898 94.52106934 0.8203125 94.88671875 C2.16246826 95.412052 2.16246826 95.412052 3.53173828 95.94799805 C9.62048123 98.54309136 12.14343139 102.28686279 15 108 C16.13669614 111.432089 16.1016114 114.65175121 16.0625 118.25 C16.05347656 119.32765625 16.04445313 120.4053125 16.03515625 121.515625 C16.02355469 122.33546875 16.01195312 123.1553125 16 124 C25.56986818 128.87751118 35.14824937 133.73782725 44.737957 138.57622719 C49.19032642 140.82330922 53.63951704 143.07626152 58.08203125 145.34277344 C62.36739568 147.52883658 66.6603318 149.69928684 70.95902252 151.85902023 C72.59973164 152.6867801 74.23760816 153.52017875 75.87258148 154.35921097 C78.15884411 155.53127308 80.45425392 156.68308728 82.75292969 157.83056641 C83.43050323 158.18373428 84.10807678 158.53690216 84.80618286 158.90077209 C88.44488582 160.74743573 88.44488582 160.74743573 92.36016846 160.30599976 C94.22121001 158.82382323 95.43109176 157.35336235 96.75 155.375 C97.17796875 154.74335938 97.6059375 154.11171875 98.046875 153.4609375 C98.36140625 152.97882813 98.6759375 152.49671875 99 152 C98.39414062 151.21238281 97.78828125 150.42476563 97.1640625 149.61328125 C96.76477539 149.09419189 96.36548828 148.57510254 95.95410156 148.0402832 C95.0524715 146.86819725 94.15077667 145.69616112 93.24902344 144.52416992 C91.03173658 141.64223332 88.81545288 138.75954773 86.6015625 135.875 C81.15313843 128.77937796 75.66925594 121.71208162 70.17285156 114.65356445 C65.96960334 109.25338365 61.79206695 103.834403 57.625 98.40625 C54.43372025 94.25758632 51.215787 90.12967519 48 86 C43.98534375 80.84442648 39.97898977 75.68315772 36 70.5 C32.10160685 65.42317102 28.18086105 60.36422849 24.25 55.3125 C23.66573242 54.56154053 23.08146484 53.81058105 22.47949219 53.03686523 C19.34306595 49.00694209 16.20388269 44.97918562 13.0625 40.953125 C12.4240918 40.13416748 11.78568359 39.31520996 11.12792969 38.47143555 C9.90030428 36.89668517 8.67182423 35.32260057 7.44238281 33.74926758 C6.88905273 33.03923584 6.33572266 32.3292041 5.765625 31.59765625 C5.27868164 30.97383057 4.79173828 30.35000488 4.29003906 29.70727539 C3.13594686 28.17991604 2.06189314 26.59283971 1 25 C0.01 25 -0.98 25 -2 25 Z M-251 48 C-253.90288337 51.38669726 -254.58198247 54.53268079 -254.4296875 59 C-253.65395507 62.61068185 -251.60947818 64.45265225 -249 67 C-245.79888929 68.60055535 -242.48117737 68.35481231 -239 68 C-235.13055983 66.53821149 -234.17960072 65.31729461 -232.125 61.6875 C-230.9190513 57.73466817 -230.72918946 55.89715233 -232 52 C-234.46877945 48.12048944 -236.55097365 46.22348225 -241 45 C-245.43338303 45 -247.27033452 45.69871705 -251 48 Z M-216 66 C-217.7479577 68.09407841 -217.7479577 68.09407841 -219.375 70.75 C-221.90060182 74.53572163 -224.16046723 77.44031149 -228 80 C-226.72965619 86.44154135 -224.90837277 92.20454872 -222.375 98.25 C-220.09598812 103.78173066 -217.8594095 109.31538836 -215.80078125 114.93359375 C-215.4464502 115.89555664 -215.09211914 116.85751953 -214.72705078 117.84863281 C-214.04331175 119.71582809 -213.36824495 121.58622591 -212.70263672 123.45996094 C-212.23688232 124.72308105 -212.23688232 124.72308105 -211.76171875 126.01171875 C-211.49319092 126.75897217 -211.22466309 127.50622559 -210.94799805 128.27612305 C-210.05709892 130.35813326 -210.05709892 130.35813326 -207 131 C-204.57258036 129.80351703 -202.35635798 128.54581231 -200.0625 127.125 C-198.96941528 126.46528198 -198.96941528 126.46528198 -197.85424805 125.79223633 C-195.22995362 124.20485173 -192.61533774 122.60209603 -190 121 C-187.22677821 119.31370772 -184.45240945 117.6293187 -181.67773438 115.94541931 C-178.68147721 114.12673193 -175.68623678 112.30642266 -172.69335938 110.48217773 C-164.12893218 105.26581134 -155.51695098 100.13633082 -146.83911133 95.11010742 C-142.63319685 92.65363845 -138.70067192 90.19914349 -135 87 C-142.77434783 83.79879795 -150.86159588 81.84467934 -158.98828125 79.76953125 C-160.53915028 79.3705363 -162.08994563 78.97125484 -163.64067078 78.57170105 C-166.87504508 77.73939117 -170.1101922 76.91017711 -173.34594727 76.08325195 C-177.49457498 75.02282114 -181.64130281 73.95516605 -185.78750324 72.88528919 C-188.9823544 72.06163712 -192.17809933 71.2414993 -195.37413597 70.42246056 C-196.90422928 70.02995354 -198.43405862 69.636416 -199.96361732 69.24183083 C-202.09505701 68.69259641 -204.22763625 68.14803415 -206.3605957 67.60473633 C-207.57334671 67.29401688 -208.78609772 66.98329742 -210.03559875 66.66316223 C-212.98166057 65.89084372 -212.98166057 65.89084372 -216 66 Z M-253 83 C-253.37060547 83.82161621 -253.74121094 84.64323242 -254.12304688 85.48974609 C-261.29949748 101.38202671 -268.54320463 117.23708138 -276 133 C-281.22969777 144.0627974 -286.40706815 155.14770045 -291.48681641 166.28027344 C-292.15838039 167.75156495 -292.83121747 169.22227608 -293.50537109 170.69238281 C-294.4346094 172.72023486 -295.35875552 174.75032295 -296.28125 176.78125 C-296.80783203 177.93689453 -297.33441406 179.09253906 -297.87695312 180.28320312 C-299.12733975 182.81809059 -299.12733975 182.81809059 -299 185 C-295.55729412 183.69701423 -292.42331841 182.19543498 -289.24609375 180.33984375 C-288.32368896 179.80230469 -287.40128418 179.26476562 -286.45092773 178.7109375 C-285.45649658 178.12570313 -284.46206543 177.54046875 -283.4375 176.9375 C-281.86367554 176.01517578 -281.86367554 176.01517578 -280.25805664 175.07421875 C-268.58197588 168.20644093 -257.01199411 161.16460445 -245.45068359 154.10595703 C-240.9227461 151.34163493 -236.38999095 148.58524685 -231.85766602 145.828125 C-227.57091096 143.2201722 -223.28541223 140.6101585 -219 138 C-221.0595659 131.55021072 -223.41990578 125.27170599 -225.9765625 119.00390625 C-226.34727875 118.08915024 -226.717995 117.17439423 -227.09994507 116.23191833 C-227.87685777 114.31627698 -228.65508311 112.40116749 -229.43457031 110.48657227 C-230.63109399 107.54753124 -231.82370168 104.60692495 -233.015625 101.66601562 C-233.77321327 99.79938814 -234.53101796 97.93284848 -235.2890625 96.06640625 C-235.6463443 95.18626358 -236.0036261 94.30612091 -236.37173462 93.39930725 C-236.7023288 92.58763596 -237.03292297 91.77596466 -237.37353516 90.93969727 C-237.6642691 90.22515884 -237.95500305 89.51062042 -238.25454712 88.77442932 C-238.79143067 87.49646536 -239.380091 86.239818 -240 85 C-243.0399648 84.30662208 -243.0399648 84.30662208 -246.5625 83.875 C-248.35880859 83.62363281 -248.35880859 83.62363281 -250.19140625 83.3671875 C-251.11824219 83.24601562 -252.04507813 83.12484375 -253 83 Z M-148.30712891 102.77050781 C-152.13262575 105.93772786 -156.25254941 108.4464407 -160.5 111 C-162.00082398 111.94716032 -163.49947763 112.89776718 -164.99609375 113.8515625 C-171.15499921 117.74099693 -177.35838595 121.55830076 -183.5625 125.375 C-184.6453125 126.04144531 -185.728125 126.70789063 -186.84375 127.39453125 C-193.20560744 131.30286642 -199.58832782 135.17392473 -206 139 C-203.96150996 146.19386557 -201.51843632 153.15709165 -198.8125 160.125 C-198.44447266 161.08148438 -198.07644531 162.03796875 -197.69726562 163.0234375 C-196.80144555 165.35024289 -195.90232227 167.67571021 -195 170 C-182.57452684 168.40656422 -170.40858969 165.57285788 -158.1875 162.875 C-156.03067986 162.40197473 -153.87377941 161.92931548 -151.71679688 161.45703125 C-146.47693113 160.30890623 -141.23807524 159.15626482 -136 158 C-135.80954102 157.31220459 -135.61908203 156.62440918 -135.42285156 155.91577148 C-135.1647168 155.01415283 -134.90658203 154.11253418 -134.640625 153.18359375 C-134.38829102 152.28954834 -134.13595703 151.39550293 -133.87597656 150.47436523 C-132.1640334 145.63865064 -129.08976408 143.60775304 -124.75 141.1875 C-121.05166925 140.01636193 -120.28403974 140.08166462 -116.75 140.6875 C-114.37775956 140.88553784 -114.37775956 140.88553784 -112 140 C-108.36306907 136.39117518 -105.52756207 132.31488589 -102.57128906 128.14404297 C-99.77906852 124.3340242 -96.72046138 120.74407966 -93.6875 117.125 C-89.29494804 111.86268457 -85.06274501 106.52194529 -81 101 C-104.62375729 88.02750627 -127.3413597 84.97636345 -148.30712891 102.77050781 Z M-71 103 C-82.34470611 117.41668785 -93.36672481 132.05005071 -104 147 C-100.65167165 148.11610945 -100.09725184 147.93421597 -96.92529297 146.78759766 C-96.10449249 146.49593719 -95.28369202 146.20427673 -94.4380188 145.90377808 C-93.54839447 145.57717194 -92.65877014 145.2505658 -91.7421875 144.9140625 C-90.34986404 144.41533127 -90.34986404 144.41533127 -88.92941284 143.90652466 C-85.907908 142.82178104 -82.89134967 141.72398935 -79.875 140.625 C-77.818263 139.88120199 -75.76129662 139.13803797 -73.70410156 138.39550781 C-70.64283482 137.29017186 -67.58193252 136.18390446 -64.52246094 135.0736084 C-58.86229462 133.02142646 -53.19102536 131.01235628 -47.4921875 129.0703125 C-46.32316895 128.66731934 -45.15415039 128.26432617 -43.94970703 127.84912109 C-41.86882838 127.13432515 -39.78400302 126.43088289 -37.69482422 125.74072266 C-36.80037598 125.42925293 -35.90592773 125.1177832 -34.984375 124.796875 C-34.22866211 124.54260742 -33.47294922 124.28833984 -32.69433594 124.02636719 C-30.82205 123.12872702 -30.82205 123.12872702 -30.25488281 121.05957031 C-29.96130218 118.68730385 -29.93366877 116.38792444 -30 114 C-38.37084488 111.00839027 -46.94109907 108.93002037 -55.5625 106.8125 C-57.06323295 106.44108602 -58.56388472 106.06934384 -60.06445312 105.69726562 C-63.70871054 104.79439089 -67.35403751 103.89596335 -71 103 Z M-15.8125 109.25 C-17.75740934 112.11618219 -17.88400095 114.578028 -18 118 C-16.50862138 122.08166781 -14.97479556 125.06631567 -11 127 C-5.86364675 127.70114392 -5.86364675 127.70114392 -1.18359375 125.9453125 C0.99189211 124.173471 2.73703554 122.52592891 4 120 C4.3744411 115.03865547 4.23898133 111.88677759 1 108 C-5.7404407 103.92765041 -9.45272413 104.86394768 -15.8125 109.25 Z M-37.890625 129.67578125 C-38.69533234 129.95703857 -39.50003967 130.2382959 -40.32913208 130.52807617 C-42.97065323 131.45274602 -45.61040059 132.38235969 -48.25 133.3125 C-50.06201047 133.9488154 -51.8740222 134.58512723 -53.68603516 135.22143555 C-64.94147721 139.1812661 -76.17354376 143.20242721 -87.375 147.3125 C-88.01328735 147.5465152 -88.65157471 147.7805304 -89.3092041 148.02163696 C-95.75314383 150.27723487 -95.75314383 150.27723487 -102 153 C-102.31655664 154.92806341 -102.31655664 154.92806341 -102.375 157.1875 C-102.82144612 161.80565574 -103.85242689 164.44889187 -107 168 C-108.41338919 168.63237681 -109.83032053 169.25687407 -111.25 169.875 C-113.47602792 170.93277299 -113.47602792 170.93277299 -115 173 C-115.56173445 177.21726393 -115.52683754 181.0826715 -115.24554443 185.30995178 C-115.16451477 186.52766769 -115.08348511 187.74538361 -115 189 C-95.75206179 189.14765672 -76.53301698 188.74284437 -57.29449487 188.2252152 C-53.14228337 188.11410258 -48.98998141 188.00646467 -44.83769226 187.89830017 C-37.87635283 187.71644567 -30.915085 187.53203147 -23.95385742 187.34594727 C-15.97009306 187.13255414 -7.98623577 186.92297017 -0.00231582 186.71548563 C7.76594856 186.5135403 15.53414684 186.30915334 23.30231667 186.10360527 C26.56922398 186.01718491 29.83614976 185.9315227 33.1030941 185.84651375 C50.41047439 185.39519779 67.70828611 184.88862901 85 184 C86.32 178.39 87.64 172.78 89 167 C85.52117537 165.33261621 82.04202624 163.66591872 78.5625 162 C76.99036743 161.24722778 76.99036743 161.24722778 75.38647461 160.47924805 C69.29066137 157.56369729 63.18411828 154.6733824 57.0625 151.8125 C45.55032017 146.4156098 34.17337106 140.76951931 23.04638672 134.61328125 C19.45184187 132.65426942 16.02771663 130.81446901 12 130 C9.7671816 131.19883168 9.7671816 131.19883168 8 133.25 C3.318014 137.74647335 -0.35823371 139.04681697 -6.8125 139.375 C-13.21957793 139.20183573 -18.4544965 137.5455035 -23.046875 132.953125 C-24.26369041 131.53518307 -25.44813766 130.08846468 -26.58984375 128.609375 C-27.05519531 128.07828125 -27.52054687 127.5471875 -28 127 C-31.45851057 127 -34.65565703 128.53503897 -37.890625 129.67578125 Z M-221.05078125 148.38671875 C-221.88327393 148.9060498 -222.7157666 149.42538086 -223.57348633 149.96044922 C-224.47736084 150.53037598 -225.38123535 151.10030273 -226.3125 151.6875 C-228.23949987 152.89206061 -230.1665855 154.09648404 -232.09375 155.30078125 C-233.07988281 155.91904785 -234.06601563 156.53731445 -235.08203125 157.17431641 C-238.63607613 159.39797334 -242.20160018 161.60261292 -245.76904297 163.8046875 C-250.18333884 166.53004275 -254.591339 169.26554274 -259 172 C-260.06444336 172.6595166 -261.12888672 173.3190332 -262.22558594 173.99853516 C-265.54807696 176.05855684 -268.86806996 178.12255039 -272.1875 180.1875 C-273.23397705 180.8357373 -274.2804541 181.48397461 -275.35864258 182.15185547 C-276.32697021 182.75529785 -277.29529785 183.35874023 -278.29296875 183.98046875 C-279.1543042 184.51567139 -280.01563965 185.05087402 -280.90307617 185.60229492 C-283.09526221 186.96446542 -283.09526221 186.96446542 -285 189 C-274.9861163 188.37026092 -265.38413552 186.01542992 -255.625 183.8125 C-251.96138361 182.99278918 -248.2970735 182.17619866 -244.6328125 181.359375 C-243.72714539 181.15683609 -242.82147827 180.95429718 -241.8883667 180.74562073 C-236.30651453 179.50066949 -230.71786685 178.29779795 -225.1171875 177.140625 C-224.4544986 177.00287155 -223.79180969 176.8651181 -223.10903931 176.72319031 C-220.06229898 176.09022399 -217.0143577 175.465043 -213.96337891 174.8527832 C-212.91327637 174.63452881 -211.86317383 174.41627441 -210.78125 174.19140625 C-209.87439453 174.00779541 -208.96753906 173.82418457 -208.03320312 173.63500977 C-207.36224609 173.42545654 -206.69128906 173.21590332 -206 173 C-204.68943941 170.96043727 -204.68943941 170.96043727 -205.80444336 168.47802734 C-206.44071655 166.92269287 -206.44071655 166.92269287 -207.08984375 165.3359375 C-207.77143555 163.65371094 -207.77143555 163.65371094 -208.46679688 161.9375 C-208.95212891 160.761875 -209.43746094 159.58625 -209.9375 158.375 C-210.41896484 157.19164062 -210.90042969 156.00828125 -211.39648438 154.7890625 C-212.59079705 151.85649275 -213.79223663 148.92705005 -215 146 C-217.65458098 146 -218.80364788 146.97583105 -221.05078125 148.38671875 Z M-125 151 C-127.35618542 153.88599388 -127.35618542 153.88599388 -126.8125 157.5 C-126.23676756 160.85440443 -126.23676756 160.85440443 -124.8125 162.875 C-122.15800608 164.52261692 -120.11672513 164.87533099 -117 165 C-113.27156036 163.26655125 -113.27156036 163.26655125 -111 160 C-110.73759228 156.45749583 -110.5891255 153.86740173 -112.125 150.625 C-116.56378299 146.77805474 -120.61958937 147.59301395 -125 151 Z M112.76171875 166.9296875 C107.33048205 173.31229382 105.13423592 179.65503736 105.51171875 188.03515625 C106.69984906 195.24948348 110.32073109 201.4024966 116 206 C122.84114305 210.54017168 128.86912764 211.84895873 137 211 C144.64948798 208.82685001 151.39789689 204.28312157 155.375 197.3125 C158.43415948 190.31633528 158.81354035 183.49742016 156.4375 176.25 C153.45771771 169.1208963 149.44419512 163.88294585 142.26171875 160.72265625 C131.45496702 157.26972176 120.99097361 158.95081565 112.76171875 166.9296875 Z M-151.7421875 165.40625 C-152.86569611 165.65040649 -153.98920471 165.89456299 -155.14675903 166.14611816 C-158.72413635 166.92493553 -162.29955909 167.71234575 -165.875 168.5 C-168.30456348 169.03051619 -170.7342497 169.56047063 -173.1640625 170.08984375 C-179.11081301 171.38672135 -185.05598321 172.69065331 -191 174 C-192.34065112 178.28682365 -191.26276384 180.60301502 -189.5625 184.75 C-189.08941406 185.92046875 -188.61632812 187.0909375 -188.12890625 188.296875 C-187.75636719 189.18890625 -187.38382813 190.0809375 -187 191 C-172.0749126 191.13868916 -157.16947798 190.94631423 -142.25 190.5625 C-141.021035 190.5330278 -141.021035 190.5330278 -139.76724243 190.50296021 C-137.41238078 190.44557924 -135.05777036 190.38201001 -132.703125 190.31640625 C-131.99884872 190.29968872 -131.29457245 190.28297119 -130.56895447 190.26574707 C-126.86956687 190.15406744 -123.66673162 189.73334632 -120 189 C-120 184.05 -120 179.1 -120 174 C-121.5675 173.29875 -123.135 172.5975 -124.75 171.875 C-128.15775952 170.20462349 -130.40139678 169.0420774 -132.25 165.6875 C-132.8275 164.800625 -133.405 163.91375 -134 163 C-139.92120813 162.20644857 -145.98758979 164.12962346 -151.7421875 165.40625 Z M-212.07275391 178.25341797 C-213.95083237 178.66417068 -213.95083237 178.66417068 -215.86685181 179.08322144 C-217.23677046 179.38614191 -218.60667363 179.68913238 -219.9765625 179.9921875 C-221.38555074 180.30154948 -222.79459913 180.61063759 -224.20370483 180.91946411 C-227.91953918 181.73463229 -231.63453115 182.55357835 -235.34936523 183.37329102 C-239.10089229 184.20038983 -242.85321767 185.02384956 -246.60546875 185.84765625 C-257.40624005 188.22004642 -268.20607903 190.59660272 -279 193 C-279 193.33 -279 193.66 -279 194 C-251.94 193.34 -224.88 192.68 -197 192 C-199.58287242 184.2150928 -199.58287242 184.2150928 -203 177 C-206.23091947 177 -208.91606475 177.55899189 -212.07275391 178.25341797 Z M48.34130859 189.45898438 C46.55543092 189.50845873 44.76954712 189.55771245 42.98365784 189.60676575 C38.19762233 189.73883568 33.41167701 189.87394021 28.62574339 190.00964546 C23.60101983 190.15158656 18.57621685 190.29065937 13.55142212 190.43005371 C4.06402731 190.69367369 -5.42329473 190.95982365 -14.91059244 191.22691298 C-25.7233245 191.53119079 -36.53613589 191.83260189 -47.34895444 192.13378811 C-69.56605852 192.75269904 -91.78306198 193.3751583 -114 194 C-114.05767886 203.63493428 -113.9580151 213.22622644 -113.48095703 222.85229492 C-113.42564819 224.03080521 -113.37033936 225.20931549 -113.31335449 226.42353821 C-113.13169996 230.27602496 -112.94476633 234.12823586 -112.7578125 237.98046875 C-112.62729633 240.71955216 -112.49796809 243.45869132 -112.36862183 246.1978302 C-112.06230998 252.67099498 -111.75229305 259.14397637 -111.44078815 265.61689311 C-110.99254227 274.93430869 -110.54970479 284.25198137 -110.10692978 293.56965828 C-110.04001618 294.97768275 -109.97310258 296.38570722 -109.90618896 297.79373169 C-109.87322716 298.48750196 -109.84026535 299.18127222 -109.80630469 299.89606583 C-109.60827281 304.06205888 -109.40927601 308.22800454 -109.20953059 312.39391577 C-108.57668894 325.59690507 -107.95580292 338.8001296 -107.39355469 352.00634766 C-107.34764883 353.0770025 -107.30174297 354.14765734 -107.25444603 355.25075626 C-107.04408359 360.16649228 -106.83793396 365.08233185 -106.6399231 369.99858093 C-106.56852196 371.69217519 -106.49698765 373.38576384 -106.42529297 375.0793457 C-106.39664028 375.83382555 -106.36798759 376.5883054 -106.33846664 377.36564827 C-106.18582703 382.27534649 -106.18582703 382.27534649 -105 387 C-103.05707401 388.1052209 -103.05707401 388.1052209 -100.6875 388.6875 C-99.90761719 388.91824219 -99.12773437 389.14898437 -98.32421875 389.38671875 C-97.55722656 389.58910156 -96.79023438 389.79148437 -96 390 C-95.35289062 390.28617188 -94.70578125 390.57234375 -94.0390625 390.8671875 C-91.76270236 391.23417023 -91.76270236 391.23417023 -89.51171875 389.18359375 C-88.57972656 388.27738281 -87.64773437 387.37117187 -86.6875 386.4375 C-85.61335158 385.41008271 -84.53912943 384.38274252 -83.46484375 383.35546875 C-82.90007324 382.80681152 -82.33530273 382.2581543 -81.75341797 381.69287109 C-79.40234496 379.42298245 -77.00804506 377.20157305 -74.61254883 374.97875977 C-68.04445359 368.8824585 -61.51956795 362.73938647 -54.98364258 356.60864258 C-48.6188737 350.63949852 -42.24015987 344.68537667 -35.85888672 338.73388672 C-33.36430588 336.40705284 -30.87047378 334.07941739 -28.37670898 331.75170898 C-27.12758768 330.5857866 -25.87840168 329.4199335 -24.62915039 328.25415039 C-21.47829737 325.31376531 -18.32825031 322.37252492 -15.1796875 319.4296875 C-9.32282296 313.95692884 -3.45915794 308.49238477 2.4375 303.0625 C8.64636923 297.34390545 14.80286796 291.5703165 20.95703125 285.79296875 C24.81922084 282.16771195 28.68922074 278.55090258 32.5625 274.9375 C33.17794678 274.36330322 33.79339355 273.78910645 34.42749023 273.19750977 C36.90294227 270.88827825 39.37872361 268.57939994 41.85449219 266.27050781 C48.91114628 259.68899929 55.96206491 253.10152686 63 246.5 C65.66641373 243.9997301 68.33312974 241.49978294 71 239 C71.6609668 238.3802832 72.32193359 237.76056641 73.00292969 237.12207031 C80.59985661 230.00251533 88.2198136 222.91978931 96 216 C94.57983848 212.25842061 92.87063019 208.78549106 91 205.25 C88.40687914 200.14577913 87.01187685 195.61131707 86 190 C84.83710204 188.60946596 84.83710204 188.60946596 81.62081337 188.88620758 C80.11508042 188.88790901 78.60934708 188.89593972 77.10366821 188.90881348 C75.88971483 188.91449648 75.88971483 188.91449648 74.65123713 188.92029428 C65.87809506 188.97772389 57.11061878 189.20686296 48.34130859 189.45898438 Z M-313 194 C-313.33333333 197 -313.33333333 197 -313 200 C-311.11625538 202.28056299 -311.11625538 202.28056299 -308.0625 202.4375 C-306.5465625 202.2209375 -306.5465625 202.2209375 -305 202 C-303.0645852 199.60943058 -303.0645852 199.60943058 -302 197 C-303.0645852 194.39056942 -303.0645852 194.39056942 -305 192 C-308.76968741 191.46147323 -310.25497545 191.25497545 -313 194 Z M-136.20581055 194.18359375 C-137.82624519 194.24365601 -137.82624519 194.24365601 -139.47941589 194.30493164 C-140.60382584 194.3486792 -141.72823578 194.39242676 -142.88671875 194.4375 C-144.66125175 194.50408813 -144.66125175 194.50408813 -146.47163391 194.57202148 C-150.21033182 194.71275268 -153.94891404 194.85632876 -157.6875 195 C-160.23892515 195.09654304 -162.79035739 195.19289902 -165.34179688 195.2890625 C-171.56128145 195.52387975 -177.78067383 195.76102604 -184 196 C-183.40894677 199.25518498 -182.63635831 202.25972993 -181.47216797 205.35498047 C-181.15964081 206.19139572 -180.84711365 207.02781097 -180.52511597 207.88957214 C-180.18424957 208.78968521 -179.84338318 209.68979828 -179.4921875 210.6171875 C-178.95708054 212.04331108 -178.95708054 212.04331108 -178.41116333 213.49824524 C-177.23640338 216.62533651 -176.0558534 219.75020515 -174.875 222.875 C-174.04540154 225.07846739 -173.21597653 227.28200008 -172.38671875 229.4855957 C-167.36382068 242.81704286 -162.27875613 256.12354239 -157.14019775 269.4107666 C-148.83198468 290.9055151 -140.74855602 312.48597187 -132.63826752 334.05596256 C-131.31282315 337.58070171 -129.98586808 341.10485626 -128.65539551 344.62770081 C-126.29392423 350.88331214 -123.94156482 357.14142923 -121.63843918 363.41880226 C-120.63437121 366.1519801 -119.62186982 368.88199188 -118.60822296 371.61162949 C-118.13364111 372.89666668 -117.66316527 374.18322849 -117.19701385 375.47134781 C-116.55866188 377.23450899 -115.90521891 378.9921849 -115.25097656 380.74951172 C-114.88699768 381.74361053 -114.5230188 382.73770935 -114.14801025 383.76193237 C-113.15716127 386.33638146 -113.15716127 386.33638146 -110 387 C-110.36874274 378.27056287 -110.74503434 369.54145508 -111.125 360.8125 C-111.15549564 360.11184921 -111.18599129 359.41119843 -111.21741104 358.6893158 C-112.76454739 323.20443536 -114.47888863 287.72738732 -116.1875 252.25 C-116.2220696 251.53213334 -116.25663919 250.81426667 -116.29225636 250.07464647 C-117.19242115 231.38298085 -118.09498952 212.69143167 -119 194 C-127.60448839 193.97434153 -127.60448839 193.97434153 -136.20581055 194.18359375 Z M-294 199 C-295.34269412 202.24890711 -295.34269412 202.24890711 -296 206 C-294.72376728 208.58766884 -294.72376728 208.58766884 -292.375 210.6875 C-291.5396875 211.53441406 -290.704375 212.38132813 -289.84375 213.25390625 C-288.9053125 214.16011719 -287.966875 215.06632812 -287 216 C-285.98743636 217.00696026 -284.97706791 218.01613207 -283.96875 219.02734375 C-282.41643627 220.58334411 -280.86254078 222.13732212 -279.29980469 223.68286133 C-276.62872061 226.32971692 -274.05382316 229.00457263 -271.625 231.875 C-268.29263772 235.79832308 -264.6558494 239.38208911 -261 243 C-256.78989047 247.1664645 -252.72758786 251.35285406 -248.90234375 255.87890625 C-245.67498815 259.47737461 -242.19375027 262.8252353 -238.75756836 266.22290039 C-235.31611835 269.64055815 -232.07391349 273.14278209 -228.9375 276.84375 C-225.6963345 280.45085354 -222.20737621 283.81178895 -218.76000977 287.22045898 C-215.29613554 290.66036521 -212.02875066 294.1855385 -208.87109375 297.91015625 C-206.3561655 300.71910534 -203.68164678 303.35108617 -201 306 C-197.15230033 309.80073355 -193.49517847 313.65780695 -189.99609375 317.78515625 C-186.60645224 321.54626532 -182.97083348 325.0678387 -179.35375977 328.60913086 C-175.10220023 332.79559954 -175.10220023 332.79559954 -174 335 C-173.34 335 -172.68 335 -172 335 C-171.740979 335.58571777 -171.48195801 336.17143555 -171.21508789 336.77490234 C-169.90997874 339.16484906 -168.50660672 340.7071834 -166.55859375 342.6015625 C-165.89279297 343.25640625 -165.22699219 343.91125 -164.54101562 344.5859375 C-163.84685547 345.25882813 -163.15269531 345.93171875 -162.4375 346.625 C-161.05901463 347.96911869 -159.68260599 349.31537153 -158.30859375 350.6640625 C-157.69814209 351.25654785 -157.08769043 351.8490332 -156.45874023 352.45947266 C-155 354 -155 354 -154 356 C-153.34 356 -152.68 356 -152 356 C-151.60494263 356.88510254 -151.60494263 356.88510254 -151.2019043 357.78808594 C-149.94798348 360.09572815 -148.64804739 361.56727394 -146.76953125 363.390625 C-146.13474854 364.01380615 -145.49996582 364.6369873 -144.84594727 365.27905273 C-143.83939087 366.25467163 -143.83939087 366.25467163 -142.8125 367.25 C-138.21403129 371.77039071 -133.72426825 376.28358189 -129.5625 381.21484375 C-126.55633961 384.649382 -123.26387436 387.812424 -120 391 C-119.01 390.01 -118.02 389.02 -117 388 C-117.30365479 387.2685376 -117.60730957 386.5370752 -117.92016602 385.78344727 C-128.72248111 359.72778077 -139.26497976 333.56797497 -149.80540466 307.40557861 C-154.72810973 295.18867052 -159.66972867 282.97946045 -164.61694336 270.77246094 C-168.13821845 262.08179746 -171.65103993 253.38781175 -175.15164185 244.688797 C-177.08359438 239.88799587 -179.01725616 235.08788377 -180.9508667 230.28775024 C-181.89257379 227.94841551 -182.83338489 225.60871987 -183.77325439 223.26864624 C-185.08358688 220.00632058 -186.39696421 216.74523561 -187.7109375 213.484375 C-188.1007782 212.51137955 -188.4906189 211.53838409 -188.89227295 210.53590393 C-190.75663171 205.91729953 -192.68290551 201.41010216 -195 197 C-228.00632813 196.7943038 -261.03686736 197.18586975 -294 199 Z M-113 401 C-115.53249114 404.05645482 -116.00779003 405.55596849 -115.9375 409.5625 C-114.89167954 413.39717502 -114.34238038 414.85744848 -111 417 C-106.90134005 417.65910887 -106.90134005 417.65910887 -103 417 C-99.70579213 414.11756811 -98.23115592 412.25851556 -97.4375 407.9375 C-98.15828906 404.17337934 -99.14435905 402.56275469 -102 400 C-106.20120319 398.87467772 -109.44724114 398.20854661 -113 401 Z " fill="#000000" transform="translate(335,10)"/>
<path d="M0 0 C0.66 0 1.32 0 2 0 C2.99 -3.3 3.98 -6.6 5 -10 C27.44 -10 49.88 -10 73 -10 C73 -8.35 73 -6.7 73 -5 C69.37 -4.34 65.74 -3.68 62 -3 C61.04558858 3.39356577 60.86856319 9.60405164 60.90234375 16.0625 C60.9037587 17.09439453 60.90517365 18.12628906 60.90663147 19.18945312 C60.91219358 22.45966589 60.92473898 25.7298082 60.9375 29 C60.9425199 31.22786359 60.94708195 33.45572826 60.95117188 35.68359375 C60.96129632 41.1224443 60.98087902 46.561144 61 52 C74.2 52 87.4 52 101 52 C100.90262278 45.91648614 100.79961825 39.83358448 100.68261719 33.75048828 C100.64453683 31.68479042 100.60964902 29.61903097 100.578125 27.55322266 C100.53201612 24.56911328 100.4741012 21.58542036 100.4140625 18.6015625 C100.39673569 17.23531235 100.39673569 17.23531235 100.37905884 15.84146118 C100.24457324 9.88421948 100.01558928 3.65927018 98 -2 C94.55549263 -4.29633824 92.06187717 -4.54016485 88 -5 C87.67 -6.65 87.34 -8.3 87 -10 C144.75 -10 202.5 -10 262 -10 C262 6.5 262 23 262 40 C260.02 40 258.04 40 256 40 C255.72027344 39.00742188 255.44054688 38.01484375 255.15234375 36.9921875 C251.00155115 22.73035391 245.77119568 6.8569973 232.5 -1.4375 C229.80937048 -2.63867389 227.60060614 -3.42485535 224.78125 -4.09765625 C223.5334375 -4.39542969 222.285625 -4.69320312 221 -5 C221.08399375 9.2214163 221.17929033 23.44271861 221.28752708 37.6639719 C221.33745785 44.26757776 221.3837884 50.87116788 221.421875 57.47485352 C221.45876814 63.84859734 221.50513948 70.22220838 221.55806351 76.59583855 C221.57658595 79.02664802 221.59170183 81.45748593 221.60334396 83.88833809 C221.62024287 87.29491883 221.64928752 90.70119691 221.68115234 94.10766602 C221.68331253 95.11108032 221.68547272 96.11449463 221.68769836 97.14831543 C221.75114628 102.46343073 222.11019041 107.00622374 224 112 C225.82975468 113.43019893 225.82975468 113.43019893 228.125 113.875 C229.31802734 114.19017578 229.31802734 114.19017578 230.53515625 114.51171875 C234.02508604 115.20306776 237.45574091 115.67779463 241 116 C241.33 117.32 241.66 118.64 242 120 C215.93 120 189.86 120 163 120 C163 118.68 163 117.36 163 116 C164.68029297 115.79697266 164.68029297 115.79697266 166.39453125 115.58984375 C167.86743348 115.37406826 169.34007786 115.15652754 170.8125 114.9375 C171.55048828 114.85306641 172.28847656 114.76863281 173.04882812 114.68164062 C173.76103516 114.56884766 174.47324219 114.45605469 175.20703125 114.33984375 C175.8616333 114.25081787 176.51623535 114.16179199 177.19067383 114.07006836 C180.21953755 112.27874334 181.06631481 109.24002475 182 106 C182.43328957 102.33680961 182.43759579 98.7016422 182.43237305 95.01586914 C182.4425647 93.93220062 182.45275635 92.8485321 182.46325684 91.73202515 C182.4933414 88.16634927 182.50264613 84.60094227 182.51171875 81.03515625 C182.52856874 78.55650442 182.54671941 76.07786111 182.56611633 73.59922791 C182.61358734 67.08750066 182.6434157 60.575808 182.66955566 54.06396484 C182.69778055 47.4143147 182.74590112 40.76478732 182.79101562 34.11523438 C182.8770159 21.07688773 182.94494355 8.03851216 183 -5 C181.09797595 -4.42049775 179.20037226 -3.8264772 177.3046875 -3.2265625 C175.71889893 -2.732771 175.71889893 -2.732771 174.10107422 -2.22900391 C165.33751013 1.24413273 159.98486014 8.76307336 156 17 C152.7684162 24.48512144 150.18010882 32.14806336 148 40 C146.02 40 144.04 40 142 40 C142.00523682 39.08299316 142.01047363 38.16598633 142.01586914 37.22119141 C142.03305437 33.77326816 142.04551924 30.32539137 142.05493164 26.87744141 C142.05991708 25.39371008 142.06670785 23.90998354 142.07543945 22.42626953 C142.12246397 14.22187384 142.0216355 6.15699528 141 -2 C139.82336158 0.35327685 139.86677451 1.76549354 139.85282898 4.38961792 C139.84567368 5.31214355 139.83851837 6.23466919 139.83114624 7.18515015 C139.82845734 8.20025665 139.82576843 9.21536316 139.82299805 10.26123047 C139.81314125 11.86136993 139.81314125 11.86136993 139.80308533 13.49383545 C139.78332367 17.03495345 139.77168447 20.57602902 139.76171875 24.1171875 C139.75764322 25.3239426 139.7535677 26.53069771 139.74936867 27.77402115 C139.72849756 34.15875326 139.71419927 40.54346379 139.70483398 46.92822266 C139.6937561 53.5351138 139.65934289 60.14166939 139.61966228 66.7484417 C139.59356747 71.81841678 139.58514858 76.88831098 139.58155251 81.95834732 C139.57666955 84.39447424 139.56500739 86.83059716 139.54651451 89.26665878 C139.52227118 92.6713732 139.5230611 96.0752069 139.5300293 99.47998047 C139.51721924 100.49103851 139.50440918 101.50209656 139.49121094 102.54379272 C139.45535165 107.94388191 139.45535165 107.94388191 141.89558411 112.60574341 C144.06460123 114.0428008 145.70801022 114.74160204 148.25 115.25 C149.4875 115.4975 150.725 115.745 152 116 C152 117.32 152 118.64 152 120 C130.55 120 109.1 120 87 120 C87 118.68 87 117.36 87 116 C90.63 115.01 94.26 114.02 98 113 C99.60768841 105.8866839 100.32596247 99.2414407 100.4140625 91.9609375 C100.43342865 90.95406891 100.4527948 89.94720032 100.4727478 88.90982056 C100.53195608 85.73162998 100.57869152 82.553402 100.625 79.375 C100.66323397 77.20441233 100.70228874 75.03383896 100.7421875 72.86328125 C100.83913505 67.57560029 100.91916899 62.28804944 101 57 C87.47 57 73.94 57 60 57 C60.09717569 63.68977887 60.2000589 70.378973 60.31738281 77.06835938 C60.35555289 79.34174326 60.39042619 81.61518508 60.421875 83.88867188 C60.46778607 87.16557451 60.52573733 90.44208244 60.5859375 93.71875 C60.60326431 95.23172668 60.60326431 95.23172668 60.62094116 96.77526855 C60.73909476 102.48616533 61.19472364 107.55905404 63 113 C65.32794837 114.58529986 65.32794837 114.58529986 68.125 115 C69.03507812 115.20625 69.94515625 115.4125 70.8828125 115.625 C71.93082031 115.810625 71.93082031 115.810625 73 116 C73 117.32 73 118.64 73 120 C51.55 120 30.1 120 8 120 C7.01 117.03 6.02 114.06 5 111 C-1.36877016 111.47603492 -6.09124276 113.11865712 -11.8125 115.875 C-31.59818549 124.90798724 -52.32586112 125.92250929 -72.97314453 118.26855469 C-87.85699862 112.205186 -98.41947163 101.58199522 -104.8125 86.9375 C-106.73143472 82.0174772 -108.17708551 77.21498137 -109 72 C-109.11085938 71.30777344 -109.22171875 70.61554688 -109.3359375 69.90234375 C-111.97771202 50.23183344 -108.75942352 30.34137627 -96.73046875 14.234375 C-96.15941406 13.49703125 -95.58835937 12.7596875 -95 12 C-94.56300781 11.38640625 -94.12601563 10.7728125 -93.67578125 10.140625 C-84.55537142 -1.8008125 -67.58257158 -9.87337498 -53 -12 C-51.948125 -12.16435547 -51.948125 -12.16435547 -50.875 -12.33203125 C-31.85057119 -14.87994582 -15.78370702 -10.79937849 0 0 Z M-54 5 C-56.027596 7.8685582 -57.55485319 10.80348568 -59 14 C-59.35707031 14.73605469 -59.71414063 15.47210938 -60.08203125 16.23046875 C-65.71514755 28.82586362 -66.50079589 42.54964857 -66.39111328 56.13623047 C-66.3750071 58.49895911 -66.39108267 60.85997825 -66.41015625 63.22265625 C-66.43450225 80.50315422 -64.50944761 99.89035162 -52 113 C-45.82078338 118.14434782 -39.78422768 118.62684118 -32 118 C-28.64224528 116.69801348 -27.48051345 115.97164833 -25.89550781 112.76660156 C-24.893797 109.67189412 -24.74137155 107.1712748 -24.734375 103.921875 C-24.73179688 102.76042969 -24.72921875 101.59898437 -24.7265625 100.40234375 C-24.73816406 98.59443359 -24.73816406 98.59443359 -24.75 96.75 C-24.74226563 95.56019531 -24.73453125 94.37039062 -24.7265625 93.14453125 C-24.53467832 81.77132988 -24.53467832 81.77132988 -28.734375 71.515625 C-31.58329958 69.60979269 -33.86202695 69.19190953 -37.25 68.75 C-38.32765625 68.60046875 -39.4053125 68.4509375 -40.515625 68.296875 C-41.33546875 68.19890625 -42.1553125 68.1009375 -43 68 C-43.33 66.68 -43.66 65.36 -44 64 C-12.32 64.495 -12.32 64.495 20 65 C20 66.32 20 67.64 20 69 C18.824375 69.0928125 18.824375 69.0928125 17.625 69.1875 C14.86707031 69.71707449 14.86707031 69.71707449 13.84814453 71.97338867 C12.68952167 76.1079447 12.75274758 79.96565261 12.8046875 84.23828125 C12.80893234 85.55943184 12.80893234 85.55943184 12.81326294 86.90727234 C12.82442167 89.70915545 12.84951829 92.51071416 12.875 95.3125 C12.88503537 97.21679225 12.89416025 99.12108952 12.90234375 101.02539062 C12.92434691 105.68371797 12.95884706 110.34180406 13 115 C17.38501005 114.74715108 17.38501005 114.74715108 20.6759491 112.09362793 C22.59302868 107.6143961 22.41014742 103.51375482 22.37231445 98.68945312 C22.37596512 97.65312241 22.37961578 96.61679169 22.38337708 95.54905701 C22.39147744 92.12628755 22.37787629 88.70399225 22.36328125 85.28125 C22.36276258 82.90140788 22.36328054 80.52156533 22.36479187 78.14172363 C22.36470217 73.15512696 22.35427686 68.16869203 22.33618164 63.18212891 C22.31349476 56.78961651 22.31295068 50.39734046 22.31969929 44.00479889 C22.32304047 39.09090066 22.31640632 34.17705634 22.30657005 29.26316833 C22.30272036 26.90604433 22.30156888 24.54891433 22.3031559 22.19178772 C22.30352667 18.89792453 22.29090251 15.60436453 22.2746582 12.31054688 C22.27713562 11.33584946 22.27961304 10.36115204 22.28216553 9.35691833 C22.25874785 2.9419533 22.25874785 2.9419533 20 -3 C16.54065052 -5.59451211 14.70878494 -5 10 -5 C9.67 8.53 9.34 22.06 9 36 C7.68 36 6.36 36 5 36 C4.82984375 34.88882813 4.6596875 33.77765625 4.484375 32.6328125 C1.6904835 14.92738489 1.6904835 14.92738489 -9 1 C-24.75950912 -8.48049107 -41.03946318 -9.45112488 -54 5 Z " fill="#000000" transform="translate(1432,151)"/>
<path d="M0 0 C38.61 0 77.22 0 117 0 C116.67 1.65 116.34 3.3 116 5 C115.30132813 5.12117187 114.60265625 5.24234375 113.8828125 5.3671875 C112.97273437 5.53476563 112.06265625 5.70234375 111.125 5.875 C109.76761719 6.11863281 109.76761719 6.11863281 108.3828125 6.3671875 C105.83494012 6.83044703 105.83494012 6.83044703 104 9 C102.66166007 13.09704892 102.84476657 17.2595003 102.83886719 21.52539062 C102.83390228 22.38452057 102.82893738 23.24365051 102.82382202 24.1288147 C102.80921918 26.97130132 102.80239932 29.81373202 102.796875 32.65625 C102.79111929 34.63960775 102.78536161 36.6229655 102.77960205 38.60632324 C102.76909552 42.76912698 102.76325147 46.93191144 102.75976562 51.09472656 C102.75430046 56.40261219 102.73031342 61.71023876 102.70179367 67.01804352 C102.68306839 71.11898514 102.67795632 75.21986581 102.67642975 79.32084656 C102.67342184 81.27586778 102.66545701 83.23088842 102.65224457 85.18586731 C102.02329814 104.31035846 102.02329814 104.31035846 110 121 C115.81733694 125.21756928 123.52769353 125.38494031 130.49609375 124.78515625 C137.44103479 123.52134549 143.44282593 120.37187918 147.8125 114.75 C155.40714608 102.89929387 155.30984754 87.8837444 155.265625 74.3046875 C155.26697666 72.82121721 155.26892133 71.33774736 155.27142334 69.85427856 C155.27434926 66.76657841 155.27015826 63.67899503 155.26074219 60.59130859 C155.24932897 56.66006653 155.25593505 52.7290971 155.26788712 48.79786491 C155.27515754 45.74185172 155.2727945 42.68590186 155.26763153 39.62988663 C155.26631037 38.18120414 155.26788809 36.73251564 155.27259064 35.28384018 C155.29562489 26.20033997 154.89213481 17.67640443 152 9 C150.1068607 8.0439625 150.1068607 8.0439625 147.8125 7.4375 C147.00554687 7.19257813 146.19859375 6.94765625 145.3671875 6.6953125 C144.58601562 6.46585938 143.80484375 6.23640625 143 6 C141 5.33333333 139 4.66666667 137 4 C137.33 2.68 137.66 1.36 138 0 C167.7 0 197.4 0 228 0 C228 1.65 228 3.3 228 5 C227.22914063 5.10957031 226.45828125 5.21914062 225.6640625 5.33203125 C224.66117188 5.49058594 223.65828125 5.64914063 222.625 5.8125 C221.62726563 5.96332031 220.62953125 6.11414063 219.6015625 6.26953125 C216.6712636 6.78772298 216.6712636 6.78772298 215 10 C214.70497528 12.20937165 214.70497528 12.20937165 214.75949097 14.68864441 C214.75674164 15.65198196 214.75399231 16.61531952 214.75115967 17.60784912 C214.75835022 18.66304749 214.76554077 19.71824585 214.77294922 20.80541992 C214.77265717 21.91776505 214.77236511 23.03011017 214.77206421 24.17616272 C214.77346002 27.86101014 214.78903325 31.54565656 214.8046875 35.23046875 C214.80841673 37.78208811 214.81126413 40.3337089 214.81326294 42.8853302 C214.82012478 48.92015155 214.83589536 54.95488632 214.85596192 60.98967296 C214.87831189 67.86021829 214.88931207 74.73076707 214.89935279 81.6013397 C214.92026137 95.73426657 214.95544299 109.86712932 215 124 C217.88319135 124.06606608 220.76485246 124.11428076 223.6484375 124.15234375 C224.45982178 124.17276733 225.27120605 124.19319092 226.10717773 124.2142334 C233.1352836 124.28376565 237.69011756 122.7551186 243 118 C243.6909375 117.38125 244.381875 116.7625 245.09375 116.125 C253.88591692 107.19756897 259.07036631 95.3504883 262.30859375 83.4140625 C263 81 263 81 264 80 C265.65 80 267.3 80 269 80 C269 88.58 269 97.16 269 106 C278.65769266 85.21880772 288.29447182 64.43008767 297.75244141 43.55712891 C303.43936876 31.00917759 309.20658851 18.49915835 315 6 C302.37860057 5.79284025 291.21220424 6.85086732 281 15 C272.36371953 23.51674718 269.28654568 33.37672612 267 45 C265.35 45 263.7 45 262 45 C255.29013993 31.58027985 261 15.00370325 261 0 C292.68 0 324.36 0 357 0 C357 5.48646351 356.31871362 8.30982106 354.0625 13.01171875 C353.75106552 13.68448349 353.43963104 14.35724823 353.11875916 15.05039978 C352.08954034 17.26776334 351.04470923 19.47739823 350 21.6875 C349.27035732 23.2531809 348.54194352 24.81943501 347.81469727 26.38623047 C346.3019779 29.64271623 344.78399196 32.89666711 343.26220703 36.14892578 C340.10763706 42.90059696 337.01556062 49.68063566 333.92428589 56.4614563 C332.93531779 58.62978453 331.94463022 60.79731875 330.95336914 62.96459961 C327.59496662 70.30809517 324.24492959 77.65532791 320.90625 85.0078125 C320.5710585 85.74589142 320.235867 86.48397034 319.89051819 87.24441528 C318.30389943 90.73869648 316.71833668 94.23345109 315.13452148 97.72900391 C311.15027498 106.51467123 307.09596696 115.26587284 303 124 C316.37845034 124.6958794 327.44794429 121.49351335 338 113 C346.91980793 103.9452706 350.28203357 94.16907696 353 82 C354.65 82 356.3 82 358 82 C358.33 97.84 358.66 113.68 359 130 C293.99 130 228.98 130 162 130 C162 128.68 162 127.36 162 126 C162.78246094 125.81824219 163.56492187 125.63648438 164.37109375 125.44921875 C165.38300781 125.19785156 166.39492188 124.94648438 167.4375 124.6875 C168.44683594 124.44386719 169.45617187 124.20023437 170.49609375 123.94921875 C171.32238281 123.63597656 172.14867187 123.32273437 173 123 C173.94119085 120.17642744 174.12755797 118.45095014 174.13371277 115.52809143 C174.13797775 114.61260529 174.14224274 113.69711914 174.14663696 112.75389099 C174.14618378 111.7517305 174.14573059 110.74957001 174.14526367 109.71704102 C174.14862228 108.65988892 174.1519809 107.60273682 174.15544128 106.5135498 C174.16495958 103.01032342 174.16689478 99.50714477 174.16796875 96.00390625 C174.17118051 93.57396932 174.17454451 91.14403259 174.17805481 88.71409607 C174.18404813 83.61725415 174.18589448 78.52042918 174.18530273 73.42358398 C174.18520105 66.8852095 174.19885871 60.34694347 174.21607494 53.8085947 C174.22718012 48.78923541 174.2292224 43.76990247 174.22869301 38.75053215 C174.22987515 36.3395443 174.23431 33.92855582 174.24202538 31.51758003 C174.2517961 28.14909334 174.24895877 24.78084383 174.24291992 21.41235352 C174.24853943 20.41221725 174.25415894 19.41208099 174.25994873 18.38163757 C174.25575424 17.4633316 174.25155975 16.54502563 174.24723816 15.59889221 C174.24778293 14.80267236 174.24832769 14.0064525 174.24888897 13.18610477 C173.97131159 10.74801664 173.21560484 9.11448123 172 7 C169.07740133 7.31595661 167.46274925 7.51100487 165.40490723 9.68556213 C160.60919772 17.58599247 161.69855375 29.48404523 161.66447449 38.41583443 C161.65600206 40.56685471 161.63534052 42.71748597 161.61193848 44.86839294 C161.55625684 50.20388377 161.52050458 55.53946995 161.48431396 60.87512207 C161.45279516 65.40735841 161.41341124 69.93940115 161.36405945 74.47147942 C161.34433048 76.56724293 161.33574505 78.66284643 161.32775879 80.75868225 C161.17499845 95.54610064 159.78052109 111.07840917 149 122.25390625 C136.45900623 133.20278167 121.61116248 133.98096898 105.6796875 133.21142578 C93.33630704 132.23754026 81.82419208 128.33378794 73.125 119.25 C63.48204213 107.27004293 63.70927691 91.51078021 63.66447449 76.88319588 C63.65607581 74.23013161 63.63547888 71.5773939 63.61193848 68.92442322 C63.55598306 62.34714745 63.52026145 55.76979301 63.48431396 49.19238281 C63.45304131 43.60611112 63.4138709 38.02000461 63.36405945 32.4338665 C63.34405827 29.82535945 63.33569045 27.21698123 63.32775879 24.6084137 C63.31478769 23.00985238 63.30126757 21.41129539 63.28710938 19.81274414 C63.28809128 19.09216324 63.28907318 18.37158234 63.29008484 17.62916565 C63.24127512 13.66996388 62.86973728 10.52143372 61 7 C59.15732132 5.91431497 59.15732132 5.91431497 57 6 C54.78265886 6.6501992 54.78265886 6.6501992 53 8 C52.07768885 10.76693344 51.86973186 12.42901879 51.85523987 15.28399658 C51.84489212 16.59551697 51.84489212 16.59551697 51.83433533 17.93353271 C51.83041527 19.36877289 51.83041527 19.36877289 51.82641602 20.83300781 C51.819729 21.84322998 51.81304199 22.85345215 51.80615234 23.89428711 C51.79208789 26.09267209 51.7801983 28.29107181 51.77020454 30.48947906 C51.75377788 33.98040514 51.73053324 37.47122426 51.70530701 40.96209717 C51.63461937 50.88971594 51.57474496 60.81738108 51.52319336 70.74511719 C51.49118082 76.81760485 51.44983841 82.88997372 51.40299797 88.9623642 C51.3870955 91.26654647 51.37472051 93.57075613 51.36609077 95.87497711 C51.21189544 136.49878154 51.21189544 136.49878154 38.46484375 149.6796875 C26.95434707 160.51524222 12.35042022 165.23989236 -3.4375 165.0625 C-4.48808594 165.05347656 -5.53867187 165.04445313 -6.62109375 165.03515625 C-7.40613281 165.02355469 -8.19117188 165.01195312 -9 165 C-9 163.35 -9 161.7 -9 160 C-8.41992188 159.84144531 -7.83984375 159.68289063 -7.2421875 159.51953125 C-1.84302841 157.90691113 2.10538315 156.25690679 6 152 C9.60354664 144.88530535 11.13719257 138.13300321 11.55419922 130.21875 C11.61736485 129.03859314 11.61736485 129.03859314 11.68180656 127.83459473 C12.18774314 117.39440682 12.14419398 106.94981837 12.1328125 96.5 C12.13348813 94.28523752 12.1344603 92.07047512 12.13571167 89.85571289 C12.13717401 85.25031822 12.13508003 80.64494315 12.13037109 76.03955078 C12.12464767 70.15801452 12.12797858 64.27652365 12.13394356 58.39498901 C12.13756599 53.83607647 12.13640331 49.2771746 12.13381577 44.71826172 C12.13315255 42.54947911 12.13395358 40.38069551 12.13629532 38.21191406 C12.1388526 35.18161461 12.13493936 32.15138783 12.12939453 29.12109375 C12.13141876 28.24090073 12.13344299 27.3607077 12.13552856 26.45384216 C12.12103799 22.14975261 12.00839392 17.85101717 11.74191284 13.55493164 C11.69667418 12.75293839 11.65143551 11.95094513 11.60482597 11.12464905 C10.78362464 8.23991077 9.56418448 7.47461983 7 6 C3.34725531 5.27518916 3.34725531 5.27518916 0 5 C0 3.35 0 1.7 0 0 Z " fill="#000000" transform="translate(604,141)"/>
<path d="M0 0 C2.16491375 1.11404448 2.16491375 1.11404448 5.90234375 0.84375 C6.56234375 -1.46625 7.22234375 -3.77625 7.90234375 -6.15625 C41.56234375 -5.66125 41.56234375 -5.66125 75.90234375 -5.15625 C75.57234375 -3.50625 75.24234375 -1.85625 74.90234375 -0.15625 C74.27585937 -0.05828125 73.649375 0.0396875 73.00390625 0.140625 C71.77800781 0.36492187 71.77800781 0.36492187 70.52734375 0.59375 C69.71523437 0.73296875 68.903125 0.8721875 68.06640625 1.015625 C65.78338827 1.64211383 65.78338827 1.64211383 64.7829628 3.61087036 C63.82081712 6.05046726 63.65087963 7.78359054 63.64837646 10.39794922 C63.64273682 11.30639587 63.63709717 12.21484253 63.63128662 13.15081787 C63.63533508 14.14003235 63.63938354 15.12924683 63.64355469 16.1484375 C63.64005005 17.19598206 63.63654541 18.24352661 63.63293457 19.32281494 C63.62412649 22.78819388 63.62996326 26.25336895 63.63671875 29.71875 C63.63537184 32.12483764 63.63343109 34.53092501 63.63092041 36.93701172 C63.62797039 41.98082062 63.63226293 47.0245587 63.64160156 52.06835938 C63.65299595 58.53833655 63.64643584 65.00814781 63.63445663 71.4781189 C63.62723478 76.44687148 63.62952748 81.41558462 63.63471222 86.38433838 C63.63604781 88.77020284 63.63440416 91.15607086 63.62975311 93.54193115 C63.62468264 96.87440496 63.63240571 100.20660883 63.64355469 103.5390625 C63.63748199 105.02288422 63.63748199 105.02288422 63.63128662 106.53668213 C63.63974609 107.89935211 63.63974609 107.89935211 63.64837646 109.28955078 C63.64913052 110.07709747 63.64988457 110.86464417 63.65066147 111.67605591 C63.93813145 114.15198305 64.56692799 115.74490875 65.90234375 117.84375 C68.29694022 118.97266757 68.29694022 118.97266757 71.02734375 119.59375 C71.93742187 119.83609375 72.8475 120.0784375 73.78515625 120.328125 C74.48382812 120.49828125 75.1825 120.6684375 75.90234375 120.84375 C75.90234375 122.16375 75.90234375 123.48375 75.90234375 124.84375 C54.78234375 124.84375 33.66234375 124.84375 11.90234375 124.84375 C11.90234375 123.52375 11.90234375 122.20375 11.90234375 120.84375 C12.60101562 120.70839844 13.2996875 120.57304687 14.01953125 120.43359375 C14.92960937 120.21832031 15.8396875 120.00304687 16.77734375 119.78125 C17.68226562 119.58402344 18.5871875 119.38679688 19.51953125 119.18359375 C22.19908829 118.01053821 22.19908829 118.01053821 23.03608704 114.88793945 C24.2286005 110.21306953 24.17464991 105.59536325 24.14526367 100.796875 C24.14811119 99.3199115 24.14811119 99.3199115 24.15101624 97.81311035 C24.15470694 94.57324137 24.14404323 91.33359891 24.1328125 88.09375 C24.13161952 85.83365912 24.13116779 83.57356774 24.13142395 81.31347656 C24.12986198 76.5826506 24.12159443 71.85190061 24.1081543 67.12109375 C24.09116504 61.0651851 24.08734019 55.00935987 24.08809948 48.95343018 C24.0878272 44.28824064 24.08233659 39.62306924 24.07509804 34.95788574 C24.07192204 32.72522112 24.06994646 30.49255445 24.06920433 28.2598877 C24.06702943 25.13676474 24.05826032 22.0137291 24.04760742 18.890625 C24.0482872 17.51420837 24.0482872 17.51420837 24.04898071 16.10998535 C24.02481092 11.2490882 23.72165396 6.63701905 22.90234375 1.84375 C17.95234375 0.85375 17.95234375 0.85375 12.90234375 -0.15625 C12.57234375 13.04375 12.24234375 26.24375 11.90234375 39.84375 C10.25234375 39.84375 8.60234375 39.84375 6.90234375 39.84375 C6.68320313 38.75578125 6.4640625 37.6678125 6.23828125 36.546875 C3.73785999 24.7298895 0.49875786 12.0235506 -9.09765625 3.84375 C-15.21240169 -0.01944189 -20.83601297 -1.64035955 -28.09765625 -1.15625 C-30.84628695 -0.33267132 -33.45431625 0.73469648 -36.09765625 1.84375 C-37.08765625 2.17375 -38.07765625 2.50375 -39.09765625 2.84375 C-41.97216208 8.11367736 -42.66682154 14.15250269 -41.41015625 19.96875 C-37.65159471 32.37682175 -24.61888235 39.26343691 -14.52124023 46.31958008 C13.38902004 65.85084842 13.38902004 65.85084842 18.546875 80.69921875 C20.32698122 91.4385409 19.62373056 101.88064373 13.4296875 111.015625 C5.13286168 121.45040358 -7.3437802 125.58846977 -20.09765625 127.84375 C-36.01915133 128.88128819 -50.36169856 128.17080212 -64.7578125 120.83203125 C-67.28845766 119.58435796 -67.28845766 119.58435796 -71.09765625 119.84375 C-71.75765625 122.15375 -72.41765625 124.46375 -73.09765625 126.84375 C-74.74765625 126.84375 -76.39765625 126.84375 -78.09765625 126.84375 C-78.09765625 109.02375 -78.09765625 91.20375 -78.09765625 72.84375 C-76.11765625 72.84375 -74.13765625 72.84375 -72.09765625 72.84375 C-72.02772461 73.39200439 -71.95779297 73.94025879 -71.88574219 74.50512695 C-68.96597421 98.07290944 -68.96597421 98.07290944 -55.09765625 116.5859375 C-47.60874954 121.29575774 -39.60188574 121.56331222 -31.09765625 119.84375 C-26.81178527 118.44723024 -23.93843304 116.92862328 -21.16015625 113.34375 C-18.25831267 106.51588275 -18.43253643 100.09658228 -21.0234375 93.15625 C-25.83180718 82.80514146 -35.01931084 77.12376041 -44.09765625 70.84375 C-74.71664548 49.52263237 -74.71664548 49.52263237 -77.56640625 34.34765625 C-78.70048341 25.26215174 -77.99949603 16.35650018 -72.640625 8.6875 C-64.19443896 -1.40515775 -52.31348917 -6.77260316 -39.28125 -8.03125 C-25.00378877 -8.84856442 -12.67248982 -6.98520854 0 0 Z " fill="#000000" transform="translate(1254.09765625,146.15625)"/>
<path d="M0 0 C11.1788647 -0.3963544 22.35602309 -0.69715127 33.54051876 -0.88080692 C38.73618527 -0.96902492 43.92699988 -1.08832826 49.11987305 -1.2824707 C87.36472952 -2.67520683 87.36472952 -2.67520683 96.81263733 5.76673889 C99.37052067 8.6135517 101.55321411 11.52107493 103.56582642 14.77456665 C107.35489371 20.65413158 112.51445996 25.63176678 117.5 30.5 C121.2430589 34.18710694 124.78256114 37.97523357 128.19140625 41.97265625 C130.36958492 44.41428634 132.67248008 46.70048032 135 49 C137.91053801 51.87557659 140.72424022 54.75874094 143.375 57.875 C146.98776683 62.11155391 150.93352873 65.98866805 154.91357422 69.87646484 C157.23745732 72.16132892 159.18428114 74.27642172 161 77 C161.06995178 69.75816639 161.12303797 62.51640733 161.15543652 55.27430248 C161.17099747 51.91036612 161.19205684 48.54666332 161.22631836 45.18286133 C161.26296983 41.30283598 161.27978808 37.42313647 161.29296875 33.54296875 C161.30845261 32.35293747 161.32393646 31.16290619 161.33988953 29.93681335 C161.3412907 22.88527538 161.2283665 15.43043164 158 9 C155.07590764 7.19085277 152.37595826 6.52620015 149 6 C147.989375 5.773125 146.97875 5.54625 145.9375 5.3125 C145.298125 5.209375 144.65875 5.10625 144 5 C144 3.35 144 1.7 144 0 C155.88 0 167.76 0 180 0 C180 1.65 180 3.3 180 5 C178.906875 5.4125 177.81375 5.825 176.6875 6.25 C173.4781593 7.62450551 171.75162337 8.88600289 170 12 C166.06710653 23.79868041 167.77669713 38.42886724 167.68359375 50.703125 C167.66299028 52.99526312 167.64199299 55.28739773 167.62062073 57.57952881 C167.56575018 63.57661068 167.51618827 69.57372482 167.46777344 75.57086182 C167.41730073 81.70482208 167.36174995 87.8387362 167.30664062 93.97265625 C167.19948816 105.98173129 167.09795012 117.99084662 167 130 C164.74929412 130.08118101 162.49774678 130.13927182 160.24609375 130.1875 C158.9923999 130.22230469 157.73870605 130.25710938 156.44702148 130.29296875 C152.81493994 129.9842714 151.59252794 129.52428918 149.0625 127 C148.00967199 125.69178302 146.98830542 124.35761956 146 123 C144.94761466 121.78284726 143.88464616 120.57478261 142.8125 119.375 C142.23628906 118.70726562 141.66007812 118.03953125 141.06640625 117.3515625 C138.50786087 114.43994753 135.8835955 111.59366504 133.25 108.75 C132.73421387 108.19304443 132.21842773 107.63608887 131.68701172 107.06225586 C130.63727343 105.92897495 129.58746867 104.79575561 128.53759766 103.66259766 C126.16291926 101.09486824 123.79951855 98.5168718 121.4375 95.9375 C120.98793945 95.44668945 120.53837891 94.95587891 120.07519531 94.45019531 C119.16969207 93.46148718 118.26425566 92.47271783 117.35888672 91.48388672 C115.07357504 88.98835593 112.7867042 86.49425473 110.5 84 C109.58332596 83.00000675 108.6666593 82.00000676 107.75 81 C107.29625 80.505 106.8425 80.01 106.375 79.5 C105 78 103.625 76.5 102.25 75 C101.79608887 74.50483887 101.34217773 74.00967773 100.87451172 73.49951172 C99.95941367 72.50119339 99.04437445 71.50282114 98.12939453 70.50439453 C95.81421148 67.9782158 93.4979599 65.45303168 91.1796875 62.9296875 C90.47489258 62.16205078 90.47489258 62.16205078 89.75585938 61.37890625 C88.47037318 59.97887178 87.18442386 58.57926257 85.8984375 57.1796875 C83.35616645 54.40101417 80.8375476 51.60131211 78.31884766 48.80126953 C77.50968903 47.90183624 76.7005304 47.00240295 75.86685181 46.07571411 C75.25079071 45.39072845 74.63472961 44.7057428 74 44 C73.94878773 51.8246782 73.91405409 59.64931231 73.89013672 67.47412109 C73.88129491 70.129476 73.86656225 72.78460755 73.84912109 75.43994141 C71.86413579 100.15987712 71.86413579 100.15987712 80 122 C82.99828732 123.43938022 82.99828732 123.43938022 86.25 124.3125 C87.32765625 124.63863281 88.4053125 124.96476562 89.515625 125.30078125 C90.33546875 125.53152344 91.1553125 125.76226562 92 126 C92 127.32 92 128.64 92 130 C61.64 130 31.28 130 0 130 C0 128.68 0 127.36 0 126 C0.69867187 125.86464844 1.39734375 125.72929687 2.1171875 125.58984375 C3.02726563 125.37457031 3.93734375 125.15929687 4.875 124.9375 C5.77992188 124.74027344 6.68484375 124.54304688 7.6171875 124.33984375 C10.29681741 123.16686493 10.29681741 123.16686493 11.13275146 120.04418945 C12.32503093 115.37036456 12.27995686 110.75094949 12.25878906 105.953125 C12.2622937 104.96848267 12.26579834 103.98384033 12.26940918 102.96936035 C12.27817852 99.72950087 12.27239424 96.48986152 12.265625 93.25 C12.26697303 90.98990843 12.26891471 88.72981714 12.27142334 86.46972656 C12.27436811 81.73890414 12.27009772 77.00815737 12.26074219 72.27734375 C12.24934812 66.22139463 12.25591104 60.1656228 12.26788712 54.10968018 C12.27512314 49.44448517 12.27280976 44.77933202 12.26763153 40.11413574 C12.26629986 37.88146951 12.2679258 35.64879945 12.27259064 33.4161377 C12.27768445 30.29294812 12.26990536 27.17004343 12.25878906 24.046875 C12.26283752 23.12926392 12.26688599 22.21165283 12.27105713 21.26623535 C12.2372476 16.12404813 11.66885525 11.87186876 10 7 C6.7 6.34 3.4 5.68 0 5 C0 3.35 0 1.7 0 0 Z M52 8 C51.0362245 10.84809165 50.87278539 13.48002116 50.86628723 16.47154236 C50.86202225 17.36171555 50.85775726 18.25188873 50.85336304 19.16903687 C50.85381622 20.13797882 50.85426941 21.10692078 50.85473633 22.10522461 C50.85137772 23.13165573 50.8480191 24.15808685 50.84455872 25.21562195 C50.83505384 28.61120816 50.83310591 32.00674506 50.83203125 35.40234375 C50.82881864 37.76119507 50.82545456 40.12004619 50.82194519 42.47889709 C50.81595528 47.42433128 50.81410518 52.36974799 50.81469727 57.31518555 C50.81479895 63.65501661 50.80114003 69.99473583 50.78392506 76.33454037 C50.77281267 81.20639054 50.77077782 86.0782136 50.77130699 90.95007515 C50.77012599 93.28766834 50.76569748 95.62526221 50.75797462 97.96284294 C50.74818911 101.2304356 50.75104708 104.49778436 50.75708008 107.76538086 C50.75146057 108.73229858 50.74584106 109.69921631 50.74005127 110.69543457 C50.71432228 117.10170361 50.71432228 117.10170361 53 123 C55.80734473 125.2973659 55.80734473 125.2973659 58.9375 124.875 C62.59794981 123.8291572 63.81615559 123.11977772 66 120 C68.02894847 113.7070917 68.2928123 107.43532101 68.2746582 100.87792969 C68.27976913 99.90928986 68.28488007 98.94065002 68.29014587 97.94265747 C68.30394753 94.76899898 68.30309318 91.59555976 68.30078125 88.421875 C68.30467145 86.20469076 68.30900678 83.98750725 68.31376648 81.77032471 C68.32120695 77.13722306 68.32095177 72.50419766 68.31567383 67.87109375 C68.30986152 61.93377207 68.32686327 55.99676056 68.3500185 50.0594902 C68.36474055 45.48702165 68.36562997 40.91462825 68.36250877 36.3421402 C68.36302208 34.15247225 68.36826148 31.96280011 68.37832069 29.77315521 C68.39064709 26.71672738 68.38391762 23.66091012 68.37231445 20.60449219 C68.37995819 19.70153412 68.38760193 18.79857605 68.39547729 17.86825562 C68.35549029 13.10650066 68.14207286 9.84617857 65 6 C60.32006854 3.96354447 55.82513022 4.63852193 52 8 Z " fill="#000000" transform="translate(1001,141)"/>
<path d="M0 0 C1.65 0 3.3 0 5 0 C5.33 15.84 5.66 31.68 6 48 C-23.7 48 -53.4 48 -84 48 C-84 47.67 -84 47.34 -84 47 C-69.81 46.67 -55.62 46.34 -41 46 C-41 45.67 -41 45.34 -41 45 C-44.3 44.67 -47.6 44.34 -51 44 C-51 43.67 -51 43.34 -51 43 C-50.20078125 42.97421875 -49.4015625 42.9484375 -48.578125 42.921875 C-35.02311392 42.22185095 -22.43787296 38.5503786 -12.67578125 28.640625 C-5.3427717 19.91149718 -2.45648544 10.99835526 0 0 Z " fill="#000000" transform="translate(957,223)"/>
<path d="M0 0 C-0.99 1.32 -1.98 2.64 -3 4 C-2.01 4.495 -2.01 4.495 -1 5 C-1.61006393 5.21440231 -2.22012787 5.42880463 -2.84867859 5.64970398 C-9.25840401 7.90277603 -15.66718108 10.15853029 -22.07543945 12.41577148 C-24.45996795 13.25531248 -26.84472905 14.09419315 -29.22973633 14.93237305 C-32.67852721 16.14453966 -36.12644541 17.35916141 -39.57421875 18.57421875 C-40.62268478 18.94214035 -41.67115082 19.31006195 -42.75138855 19.68913269 C-49.34120782 22.01475034 -55.83631828 24.50154265 -62.30012512 27.15950012 C-65 28 -65 28 -68 27 C-68 26.34 -68 25.68 -68 25 C-69.32 24.67 -70.64 24.34 -72 24 C-71.0519751 23.6690332 -70.1039502 23.33806641 -69.12719727 22.99707031 C-65.43997898 21.70910943 -61.75358519 20.41880343 -58.0675354 19.12750244 C-56.40079576 18.54365117 -54.73394636 17.96011312 -53.06698608 17.37689209 C-43.77617698 14.12441624 -34.50022751 10.83886592 -25.265625 7.4296875 C-24.12171547 7.00840576 -24.12171547 7.00840576 -22.95469666 6.57861328 C-19.3111424 5.23579705 -15.67104543 3.88459119 -12.03540039 2.52050781 C-10.72813187 2.03682678 -9.42076447 1.55341286 -8.11328125 1.0703125 C-6.97673096 0.64508301 -5.84018066 0.21985352 -4.66918945 -0.21826172 C-2 -1 -2 -1 0 0 Z " fill="#000000" transform="translate(303,134)"/>
<path d="M0 0 C-0.99 1.32 -1.98 2.64 -3 4 C-2.34 4.33 -1.68 4.66 -1 5 C-5.0577405 6.51310125 -9.12189967 8.00815988 -13.1875 9.5 C-14.33798828 9.92925781 -15.48847656 10.35851562 -16.67382812 10.80078125 C-18.34155273 11.40986328 -18.34155273 11.40986328 -20.04296875 12.03125 C-21.06414795 12.40830078 -22.08532715 12.78535156 -23.13745117 13.17382812 C-25.92500452 13.97835525 -28.11930784 14.16659425 -31 14 C-29.77934628 10.20241065 -27.54528116 8.9179521 -24.1550293 7.05224609 C-20.12644414 5.08519024 -15.92167026 3.64405457 -11.6875 2.1875 C-10.78193359 1.86330078 -9.87636719 1.53910156 -8.94335938 1.20507812 C-7.64688477 0.75358398 -7.64688477 0.75358398 -6.32421875 0.29296875 C-5.54135498 0.0199292 -4.75849121 -0.25311035 -3.9519043 -0.53442383 C-2 -1 -2 -1 0 0 Z " fill="#000000" transform="translate(303,134)"/>
<path d="M0 0 C-0.804375 0.45375 -1.60875 0.9075 -2.4375 1.375 C-5.08856572 2.74725665 -5.08856572 2.74725665 -6 5 C-5.34 5.33 -4.68 5.66 -4 6 C-5.76641683 6.6987693 -7.53832664 7.38366583 -9.3125 8.0625 C-10.29863281 8.44535156 -11.28476562 8.82820312 -12.30078125 9.22265625 C-15 10 -15 10 -18 9 C-17.67 8.34 -17.34 7.68 -17 7 C-17.66 6.34 -18.32 5.68 -19 5 C-16.21142 3.96995707 -13.41969712 2.95069003 -10.625 1.9375 C-9.8309375 1.64294922 -9.036875 1.34839844 -8.21875 1.04492188 C-7.45820313 0.77099609 -6.69765625 0.49707031 -5.9140625 0.21484375 C-5.2123291 -0.04176025 -4.5105957 -0.29836426 -3.78759766 -0.56274414 C-2 -1 -2 -1 0 0 Z " fill="#000000" transform="translate(278,143)"/>
<path d="M0 0 C-0.78375 0.4125 -1.5675 0.825 -2.375 1.25 C-5.08846586 2.73877757 -5.08846586 2.73877757 -6 5.0625 C-7 7 -7 7 -9.4375 8.3125 C-12 9 -12 9 -15 8 C-15 7.34 -15 6.68 -15 6 C-16.32 5.67 -17.64 5.34 -19 5 C-16.21142 3.96995707 -13.41969712 2.95069003 -10.625 1.9375 C-9.8309375 1.64294922 -9.036875 1.34839844 -8.21875 1.04492188 C-7.45820313 0.77099609 -6.69765625 0.49707031 -5.9140625 0.21484375 C-5.2123291 -0.04176025 -4.5105957 -0.29836426 -3.78759766 -0.56274414 C-2 -1 -2 -1 0 0 Z " fill="#000000" transform="translate(250,153)"/>
<path d="M0 0 C-0.1875 1.875 -0.1875 1.875 -1 4 C-4.37823976 5.87679987 -7.17632299 6.21849583 -11 6 C-10.03628506 3.59071265 -9.34789837 2.23992991 -7.1875 0.75 C-4.67678635 -0.11081611 -2.63651351 -0.14647297 0 0 Z " fill="#000000" transform="translate(283,142)"/>
<path d="M0 0 C0.66 0.33 1.32 0.66 2 1 C-1.96 4.96 -5.92 8.92 -10 13 C-10.66 12.67 -11.32 12.34 -12 12 C-8.27653164 7.57905197 -4.70478962 3.42166518 0 0 Z " fill="#000000" transform="translate(1348,152)"/>
<path d="M0 0 C0.66 0.33 1.32 0.66 2 1 C0.76600937 2.36877116 -0.48780623 3.71969166 -1.75 5.0625 C-2.79414063 6.19365234 -2.79414063 6.19365234 -3.859375 7.34765625 C-6 9 -6 9 -8.265625 8.74609375 C-8.83796875 8.49988281 -9.4103125 8.25367187 -10 8 C-9.443125 7.773125 -8.88625 7.54625 -8.3125 7.3125 C-5.36305245 5.63848923 -3.3247731 3.45043651 -1 1 C-0.67 0.67 -0.34 0.34 0 0 Z " fill="#000000" transform="translate(315,106)"/>
<path d="M0 0 C0.66 0.33 1.32 0.66 2 1 C-0.64 3.64 -3.28 6.28 -6 9 C-6 6 -6 6 -3.5625 3.375 C-2.716875 2.59125 -1.87125 1.8075 -1 1 C-0.67 0.67 -0.34 0.34 0 0 Z " fill="#000000" transform="translate(208,151)"/>
</svg>
